<?xml version="1.0" standalone="no"?>
<!DOCTYPE svg PUBLIC "-//W3C//DTD SVG 20010904//EN"
 "http://www.w3.org/TR/2001/REC-SVG-20010904/DTD/svg10.dtd">
<svg version="1.0" xmlns="http://www.w3.org/2000/svg"
 width="700.000000pt" height="700.000000pt" viewBox="0 0 700.000000 700.000000"
 preserveAspectRatio="xMidYMid meet">
<metadata>
Created by potrace 1.11, written by Peter Selinger 2001-2013
</metadata>
<g transform="translate(0.000000,700.000000) scale(0.100000,-0.100000)"
fill="#000000" stroke="none">
<path d="M3270 6794 c-713 -64 -1310 -299 -1845 -728 -129 -102 -389 -362
-491 -491 -391 -488 -627 -1043 -711 -1673 -24 -178 -24 -626 0 -804 84 -630
320 -1185 711 -1673 102 -129 362 -389 491 -491 488 -391 1043 -627 1673 -711
178 -24 626 -24 804 0 630 84 1185 320 1673 711 129 102 389 362 491 491 391
488 627 1043 711 1673 24 178 24 626 0 804 -84 630 -320 1185 -711 1673 -102
129 -362 389 -491 491 -486 390 -1050 630 -1668 710 -116 15 -537 27 -637 18z
m605 -308 c562 -73 1065 -288 1515 -645 122 -97 354 -329 451 -451 313 -393
513 -820 608 -1296 44 -224 56 -346 56 -594 0 -248 -12 -370 -56 -594 -95
-476 -295 -903 -608 -1296 -97 -122 -329 -354 -451 -451 -393 -313 -820 -513
-1296 -608 -224 -44 -346 -56 -594 -56 -248 0 -370 12 -594 56 -476 95 -903
295 -1296 608 -122 97 -354 329 -451 451 -365 459 -581 976 -650 1555 -17 142
-17 528 0 670 59 498 233 962 509 1365 206 300 482 576 782 782 404 277 898
461 1365 507 61 6 126 13 145 15 71 8 458 -4 565 -18z"/>
<path d="M2877 5269 c-239 -25 -469 -146 -567 -299 -22 -34 -39 -50 -54 -50
-19 0 -26 17 -65 155 l-44 155 -258 0 -259 0 2 -1227 3 -1228 331 -3 332 -2 5
677 c4 550 8 697 21 778 33 210 81 330 165 408 84 79 200 115 336 104 160 -12
253 -91 308 -265 21 -65 22 -86 27 -882 l5 -815 335 0 335 0 6 735 c4 460 10
754 17 785 19 92 61 210 90 255 87 136 229 201 407 187 174 -13 274 -110 322
-314 14 -59 17 -177 20 -861 l4 -792 332 2 332 3 0 875 c0 950 0 960 -56 1135
-92 293 -315 453 -672 485 -251 22 -513 -42 -670 -162 -46 -36 -110 -104 -146
-155 -18 -26 -29 -33 -56 -33 -29 0 -37 6 -65 50 -81 126 -238 227 -426 274
-54 14 -266 38 -304 35 -8 -1 -50 -5 -93 -10z"/>
<path d="M1635 2297 c-3 -7 -4 -138 -3 -292 l3 -280 1865 0 1865 0 0 290 0
290 -1863 3 c-1495 2 -1864 0 -1867 -11z"/>
</g>
</svg>
